<?xml version="1.0" standalone="no"?>
<!DOCTYPE svg PUBLIC "-//W3C//DTD SVG 20010904//EN"
 "http://www.w3.org/TR/2001/REC-SVG-20010904/DTD/svg10.dtd">
<svg version="1.0" xmlns="http://www.w3.org/2000/svg"
 width="768.000000pt" height="767.000000pt" viewBox="0 0 768.000000 767.000000"
 preserveAspectRatio="xMidYMid meet">

<g transform="translate(0.000000,767.000000) scale(0.100000,-0.100000)"
fill="#000000" stroke="none">
<path d="M3820 7581 c-40 -5 -43 -7 -25 -18 19 -11 20 -24 23 -207 3 -188 2
-196 -17 -208 -35 -22 -24 -28 49 -28 39 0 70 2 70 5 0 3 -9 14 -20 25 -19 19
-20 33 -20 210 0 179 1 190 20 200 11 6 20 15 20 20 0 11 -27 11 -100 1z"/>
<path d="M3980 7561 c0 -15 -3 -43 -6 -60 -10 -47 25 -42 51 7 18 33 25 37 63
40 50 4 47 26 27 -204 -16 -189 -18 -201 -46 -209 -38 -12 -18 -22 54 -28 71
-5 109 5 68 18 -26 8 -27 39 -9 263 l12 152 28 0 c34 0 78 -40 78 -70 0 -18
25 -39 34 -29 2 2 7 29 11 60 l7 56 -164 12 c-89 7 -173 14 -185 17 -20 4 -23
0 -23 -25z"/>
<path d="M3524 7566 c-47 -21 -74 -62 -74 -111 0 -59 24 -85 124 -134 74 -36
86 -46 96 -77 21 -63 -20 -114 -92 -114 -20 0 -71 44 -79 68 -2 7 -11 11 -20
7 -10 -4 -14 -16 -11 -40 6 -47 -11 -45 -56 7 -60 69 -96 104 -112 110 -12 4
-9 10 11 26 79 64 55 201 -38 218 -28 5 -202 -19 -240 -33 -18 -7 -16 -23 2
-23 23 0 30 -24 65 -212 31 -167 32 -179 17 -196 -9 -10 -17 -21 -17 -24 0 -5
63 4 118 17 24 6 30 25 7 25 -19 0 -30 23 -44 99 -14 72 -8 83 44 79 23 -2 44
-20 97 -83 51 -61 72 -80 90 -78 13 1 70 4 128 6 121 4 159 19 186 75 18 37
13 91 -12 129 -8 12 -48 39 -90 59 -95 45 -114 64 -114 109 0 51 30 77 83 73
35 -2 45 -9 62 -35 11 -18 28 -32 39 -33 15 0 17 5 12 31 -3 17 -6 40 -6 50 0
17 -8 19 -72 19 -40 -1 -87 -7 -104 -14z m-255 -101 c60 -77 26 -157 -76 -179
-35 -8 -33 -12 -62 146 -9 54 -8 55 71 57 39 1 50 -3 67 -24z"/>
<path d="M4380 7544 c0 -4 7 -15 16 -25 9 -10 33 -73 54 -142 l38 -124 -14
-68 c-15 -72 -27 -95 -50 -95 -8 0 -14 -4 -14 -9 0 -5 26 -15 58 -21 31 -6 65
-12 75 -14 21 -5 23 12 2 20 -18 7 -20 67 -4 133 7 34 30 68 96 144 48 55 97
104 110 110 13 6 23 13 23 17 0 8 -122 32 -128 25 -2 -2 3 -11 11 -20 9 -9 13
-23 10 -33 -10 -27 -117 -152 -125 -144 -11 12 -48 148 -48 177 0 18 6 28 20
32 31 8 15 20 -37 28 -27 3 -58 9 -70 12 -13 3 -23 2 -23 -3z"/>
<path d="M2773 7422 c-79 -25 -143 -49 -143 -52 0 -3 10 -10 22 -15 18 -8 33
-44 80 -194 55 -174 58 -185 42 -202 -10 -11 -15 -21 -13 -24 5 -4 289 81 297
90 4 4 -19 115 -24 115 -22 0 -34 -17 -34 -50 0 -44 -19 -64 -78 -80 -24 -6
-49 -13 -56 -16 -8 -3 -22 26 -41 86 -32 101 -31 104 33 116 23 5 38 2 51 -10
21 -19 41 -21 41 -4 0 22 -34 118 -42 118 -4 0 -14 -15 -22 -34 -13 -31 -53
-56 -91 -56 -6 0 -22 33 -34 73 -13 39 -25 77 -28 83 -4 12 90 44 130 44 16 0
33 -10 46 -26 13 -17 25 -23 34 -17 11 7 11 15 0 56 -8 26 -17 47 -21 46 -4
-1 -71 -22 -149 -47z"/>
<path d="M4985 7352 c-79 -49 -136 -160 -138 -267 -1 -96 40 -148 141 -174
123 -33 243 92 259 269 6 74 -25 134 -87 167 -54 29 -132 31 -175 5z m166 -41
c25 -26 29 -37 29 -86 0 -94 -57 -231 -112 -269 -26 -18 -80 -21 -109 -6 -57
31 -62 132 -14 252 51 127 140 174 206 109z"/>
<path d="M2508 7332 c-62 -28 -73 -42 -34 -42 16 0 27 -8 34 -27 11 -28 38
-320 31 -328 -5 -4 -196 222 -212 251 -7 12 -6 23 2 37 7 10 10 21 8 24 -7 6
-137 -50 -137 -59 0 -5 9 -8 19 -8 20 0 71 -52 225 -232 85 -99 103 -115 120
-108 16 5 20 15 19 36 -17 224 -24 434 -14 452 21 40 18 40 -61 4z"/>
<path d="M5385 7233 c14 -32 7 -49 -77 -215 -66 -131 -87 -164 -105 -166 -36
-5 -27 -16 42 -50 64 -32 76 -30 53 8 -11 16 -6 31 26 99 l39 79 44 -21 c37
-18 43 -25 43 -53 0 -56 24 -47 58 22 27 55 30 66 17 71 -9 3 -24 -2 -34 -11
-10 -9 -23 -16 -30 -16 -10 0 -68 26 -79 35 -5 4 77 165 84 165 10 0 90 -43
107 -58 10 -9 17 -29 17 -54 0 -51 23 -50 50 3 12 23 20 42 18 44 -7 6 -268
135 -274 135 -3 0 -3 -8 1 -17z"/>
<path d="M2090 7132 c-64 -36 -64 -37 -35 -42 27 -5 40 -22 122 -170 51 -91
93 -172 93 -181 0 -8 -5 -20 -12 -27 -20 -20 8 -15 62 13 54 28 71 45 42 45
-27 0 -38 16 -131 184 -71 129 -82 154 -76 183 3 18 5 33 3 32 -2 0 -32 -17
-68 -37z"/>
<path d="M1912 7031 c-47 -31 -54 -45 -21 -46 15 0 45 -35 108 -125 83 -117
100 -147 69 -123 -7 6 -88 45 -181 87 l-168 76 -39 -26 c-46 -30 -51 -44 -16
-44 19 0 43 -28 131 -156 91 -134 106 -161 101 -185 -3 -16 -3 -29 0 -29 2 0
28 16 57 35 50 34 52 39 15 36 -9 -1 -27 13 -40 31 -73 98 -178 251 -176 253
2 2 66 -26 143 -62 278 -129 262 -122 281 -109 15 12 6 29 -93 172 -133 193
-138 203 -124 217 13 13 14 27 4 27 -5 0 -27 -13 -51 -29z"/>
<path d="M5783 6972 c-41 -59 -30 -75 28 -42 41 23 43 23 75 5 19 -10 34 -22
34 -27 0 -11 -176 -265 -208 -300 -19 -20 -31 -26 -49 -22 -40 11 -25 -10 43
-54 l65 -43 -6 33 c-6 30 4 48 101 188 58 85 108 157 110 159 3 3 17 -5 32
-16 23 -18 27 -27 27 -73 0 -32 5 -55 12 -57 10 -4 80 85 71 91 -70 50 -298
206 -300 206 -2 0 -17 -22 -35 -48z"/>
<path d="M3540 6999 c-658 -68 -1311 -364 -1790 -814 -196 -184 -331 -343
-481 -568 -543 -815 -659 -1852 -313 -2797 86 -233 271 -566 437 -783 454
-597 1119 -1013 1858 -1162 390 -78 837 -78 1229 2 485 98 940 312 1337 629
132 106 359 334 465 468 411 516 640 1116 678 1774 32 564 -103 1163 -371
1648 -496 896 -1370 1483 -2379 1598 -147 17 -523 20 -670 5z m514 -828 c97
-300 178 -547 181 -549 3 -3 63 -24 134 -48 285 -94 494 -219 694 -418 91 -91
229 -262 263 -327 l14 -29 597 -2 597 -3 -482 -350 -482 -349 0 -162 c0 -199
-22 -337 -81 -519 -64 -195 -162 -376 -290 -534 l-52 -64 187 -572 c102 -315
186 -575 186 -578 0 -3 -181 125 -402 286 -222 161 -442 320 -489 355 l-87 62
-134 -45 c-185 -62 -335 -87 -528 -88 -220 -2 -412 30 -607 101 l-81 30 -480
-348 c-264 -191 -485 -351 -491 -354 -7 -5 -7 2 -1 21 42 123 360 1109 360
1115 0 4 -34 51 -75 104 -127 163 -225 353 -285 556 -48 160 -62 258 -66 457
l-4 184 -476 346 -477 346 591 3 591 2 37 58 c134 209 331 402 554 542 136 86
366 181 492 205 l36 7 85 261 c47 144 130 398 184 564 54 166 101 297 104 290
4 -7 86 -257 183 -556z"/>
<path d="M3385 5525 c-177 -52 -387 -162 -550 -289 -126 -99 -284 -273 -367
-403 l-20 -33 140 0 140 0 35 43 c140 170 338 317 545 407 l84 36 39 120 c21
65 38 124 37 130 -2 8 -28 5 -83 -11z"/>
<path d="M4264 5525 c3 -9 22 -67 42 -131 36 -115 36 -115 78 -131 171 -68
334 -180 488 -335 l127 -128 135 0 c75 0 136 2 136 6 0 13 -88 133 -165 223
-179 210 -447 389 -721 480 -104 35 -129 38 -120 16z"/>
<path d="M3275 5171 c-129 -61 -243 -141 -358 -251 -59 -56 -107 -106 -107
-111 0 -5 78 -9 173 -9 l173 0 50 35 49 35 57 170 c31 93 53 170 50 170 -4 0
-43 -18 -87 -39z"/>
<path d="M4370 5198 c0 -2 24 -77 54 -168 51 -158 55 -165 96 -197 l43 -33
174 0 175 0 -32 40 c-86 108 -294 267 -434 330 -62 28 -76 33 -76 28z"/>
<path d="M2212 3898 c11 -370 117 -667 346 -970 20 -27 40 -48 44 -48 7 0 88
241 88 263 0 6 -18 38 -40 71 -109 168 -174 368 -206 636 -5 44 -7 46 -121
128 l-115 84 4 -164z"/>
<path d="M5389 3964 l-116 -84 -7 -77 c-18 -201 -89 -405 -208 -606 l-22 -37
44 -135 c24 -74 47 -135 50 -135 8 0 96 118 142 190 124 193 211 459 238 719
12 120 13 221 2 237 -5 8 -46 -16 -123 -72z"/>
<path d="M2516 3748 c18 -131 56 -253 118 -382 85 -176 75 -176 135 8 28 86
51 166 51 177 0 55 -28 86 -168 187 -77 56 -142 102 -144 102 -3 0 1 -42 8
-92z"/>
<path d="M5085 3745 c-141 -102 -175 -135 -175 -173 0 -36 99 -334 109 -327
13 7 92 174 121 255 29 79 74 288 68 315 -2 12 -33 -6 -123 -70z"/>
<path d="M3701 2737 c-77 -56 -137 -105 -133 -109 9 -9 117 -25 222 -34 90 -7
285 10 350 29 l38 12 -138 100 c-95 69 -148 101 -168 102 -24 1 -61 -21 -171
-100z"/>
<path d="M4185 2573 c-174 -45 -458 -44 -675 3 -20 4 -47 -11 -135 -76 -60
-44 -111 -84 -113 -89 -3 -10 82 -40 188 -66 259 -66 505 -70 765 -14 92 19
244 66 258 78 6 6 -193 156 -228 173 -5 2 -32 -2 -60 -9z"/>
<path d="M1517 6748 c-52 -44 -60 -62 -24 -53 20 5 37 -9 113 -92 122 -133
144 -164 144 -202 0 -47 -46 -91 -96 -91 -41 0 -60 16 -208 183 -57 64 -67 81
-62 102 4 14 4 25 0 25 -11 0 -104 -82 -104 -92 0 -5 9 -7 19 -3 23 7 42 -10
162 -143 90 -101 119 -122 172 -122 68 0 160 91 160 159 0 52 -19 81 -128 205
-77 87 -96 114 -92 133 7 36 -4 35 -56 -9z"/>
<path d="M6175 6733 c5 -24 -10 -46 -116 -163 -67 -74 -127 -139 -135 -143 -8
-5 -23 -5 -34 -2 -35 11 -22 -11 36 -61 l56 -48 -6 30 c-6 27 0 38 55 97 33
37 64 67 68 67 12 0 131 -111 131 -122 0 -5 -28 -39 -62 -74 -50 -53 -67 -64
-85 -59 -36 9 -27 -10 26 -54 56 -47 64 -50 56 -18 -5 19 12 44 95 138 140
157 167 181 190 174 11 -4 20 -3 20 2 0 9 -95 93 -105 93 -3 0 -3 -10 0 -23 5
-18 -5 -37 -45 -85 -29 -34 -55 -62 -60 -62 -4 0 -38 28 -74 63 l-67 62 58 62
c47 50 63 61 81 56 12 -3 22 -1 22 3 0 9 -94 94 -104 94 -3 0 -3 -12 -1 -27z"/>
<path d="M6530 6404 c0 -33 -3 -36 -213 -218 -64 -55 -83 -67 -103 -62 -13 4
-24 4 -24 0 0 -3 45 -58 101 -120 109 -124 102 -121 164 -70 24 19 27 27 18
37 -10 10 -18 10 -38 1 -43 -20 -60 -14 -109 38 -55 58 -56 52 37 132 l59 52
34 -37 c30 -32 33 -40 23 -63 -18 -48 5 -51 53 -8 55 49 59 79 7 59 -17 -6
-63 26 -79 55 -8 15 1 28 56 76 l66 58 44 -50 c44 -50 53 -79 33 -116 -20 -37
6 -45 46 -14 19 15 35 31 35 36 0 8 -130 161 -191 225 -19 19 -19 19 -19 -11z"/>
<path d="M1088 6330 c-53 -46 -88 -111 -88 -161 1 -101 117 -227 240 -260 68
-18 125 10 184 91 25 34 46 68 46 74 0 15 -52 66 -67 66 -21 0 -24 -19 -8 -51
20 -38 14 -67 -21 -102 -54 -54 -146 -25 -251 78 -95 93 -105 163 -32 217 22
16 32 18 62 10 29 -8 37 -7 42 5 3 9 4 16 3 17 -2 1 -17 13 -34 29 l-31 27
-45 -40z"/>
<path d="M835 6005 c-39 -57 -42 -76 -7 -54 17 11 37 0 178 -97 131 -91 160
-115 162 -137 2 -15 6 -27 10 -27 7 0 82 104 82 114 0 2 -15 3 -32 0 -29 -4
-52 8 -185 102 -124 86 -153 111 -153 130 0 37 -13 29 -55 -31z"/>
<path d="M6868 5983 c-3 -23 -28 -43 -163 -130 -134 -88 -163 -103 -187 -98
-15 4 -28 4 -28 1 0 -4 16 -31 36 -61 36 -54 61 -73 50 -37 -7 21 13 42 86 91
l47 31 17 -27 c31 -50 77 -92 112 -104 66 -22 172 45 172 109 0 15 -9 45 -19
67 -18 41 -109 185 -116 185 -2 0 -5 -12 -7 -27z m72 -126 c16 -30 21 -52 16
-70 -11 -46 -68 -87 -120 -87 -23 0 -96 69 -96 90 0 10 149 109 166 110 6 0
22 -19 34 -43z"/>
<path d="M717 5831 c-15 -28 -23 -52 -18 -55 5 -4 12 -2 16 4 11 18 31 11 166
-62 l134 -73 -203 -5 c-165 -4 -205 -8 -213 -20 -35 -53 -54 -109 -27 -82 23
23 53 11 213 -81 124 -71 161 -97 163 -114 5 -34 14 -28 44 26 29 51 28 67 -4
48 -21 -13 -16 -15 -223 102 l-100 56 220 5 c121 3 226 9 233 13 28 19 4 40
-145 123 -194 108 -213 120 -213 145 0 31 -13 22 -43 -30z"/>
<path d="M7090 5644 c0 -32 -22 -46 -198 -130 -143 -68 -166 -76 -184 -65 -11
7 -22 10 -25 8 -7 -8 56 -127 68 -127 5 0 8 4 5 9 -17 26 25 58 137 104 l37
16 40 -79 c22 -44 40 -82 40 -85 0 -11 -165 -85 -177 -80 -7 3 -20 8 -28 11
-11 4 -7 -11 14 -55 27 -57 44 -76 47 -51 1 6 2 15 3 21 0 6 80 48 176 95 148
71 179 83 196 73 12 -6 23 -8 26 -6 2 3 -10 34 -28 68 -25 48 -34 59 -37 44
-7 -32 -23 -46 -90 -77 -35 -15 -66 -28 -68 -28 -5 0 -86 161 -82 165 2 1 32
17 67 35 49 24 71 30 97 25 l33 -6 -25 58 c-30 68 -44 86 -44 57z"/>
<path d="M486 5394 c-26 -65 -28 -90 -4 -66 7 7 20 12 30 12 22 0 148 -50 148
-58 0 -4 -15 -44 -32 -89 -37 -93 -28 -91 -135 -42 -48 21 -63 33 -63 48 0 37
-15 22 -39 -40 -25 -65 -24 -77 6 -59 15 10 45 1 172 -50 195 -77 211 -86 211
-110 0 -38 18 -20 43 43 14 34 24 63 22 65 -2 2 -12 -2 -23 -9 -17 -11 -33 -8
-106 21 -47 18 -86 38 -86 45 0 12 56 155 64 162 5 5 158 -56 174 -69 6 -6 12
-20 12 -31 0 -29 13 -12 38 52 25 61 28 81 10 63 -22 -22 -61 -12 -228 57
-124 51 -166 72 -168 87 -8 41 -20 33 -46 -32z"/>
<path d="M7280 5210 c0 -24 -16 -33 -213 -105 -137 -51 -161 -57 -179 -46 -11
7 -22 11 -24 8 -6 -6 40 -127 49 -127 4 0 7 6 7 14 0 24 31 40 210 106 165 61
171 63 190 45 25 -23 25 -14 -2 63 -22 62 -38 80 -38 42z"/>
<path d="M7350 5002 c0 -23 -6 -25 -238 -93 -137 -40 -144 -40 -163 -24 -18
17 -19 17 -19 -1 1 -28 77 -279 84 -278 118 23 127 26 124 41 -2 12 -16 17
-51 18 -27 2 -53 7 -58 12 -9 9 -51 125 -47 128 9 7 361 105 376 105 10 0 23
-5 30 -12 21 -21 22 -4 4 57 -18 58 -42 85 -42 47z"/>
<path d="M324 4965 c-33 -79 -38 -131 -20 -179 34 -90 155 -156 285 -156 108
0 163 59 179 193 l8 67 -35 10 c-20 5 -41 10 -48 10 -23 0 -19 -26 9 -52 31
-28 37 -72 16 -111 -27 -52 -83 -65 -185 -43 -84 17 -137 43 -177 85 -53 56
-32 143 38 157 46 8 53 30 14 43 -52 18 -68 14 -84 -24z"/>
<path d="M7450 4656 c0 -26 -26 -35 -195 -71 -194 -40 -210 -41 -224 -18 -15
28 -23 8 -13 -33 6 -22 13 -51 16 -66 7 -29 26 -39 26 -13 0 23 23 30 213 70
170 35 179 36 198 19 16 -14 19 -15 19 -2 0 33 -23 128 -31 128 -5 0 -9 -6 -9
-14z"/>
<path d="M208 4468 c-13 -84 -23 -155 -21 -157 2 -2 11 4 22 13 18 16 28 16
205 -13 103 -17 189 -31 191 -31 2 0 11 -12 19 -27 l14 -28 6 25 c9 40 46 266
46 282 0 19 -100 42 -115 26 -7 -7 -4 -14 9 -22 10 -6 30 -20 44 -32 25 -21
25 -22 14 -89 -6 -37 -13 -69 -15 -71 -4 -4 -180 25 -186 31 -2 2 0 24 3 49 6
38 12 46 36 55 51 17 37 37 -35 47 -54 8 -65 8 -65 -4 0 -8 9 -21 21 -31 18
-14 20 -23 14 -64 -4 -26 -12 -47 -19 -47 -6 0 -46 5 -89 12 l-77 11 6 51 c9
73 24 99 62 111 46 13 43 41 -5 49 -21 3 -43 6 -49 6 -7 0 -21 -61 -36 -152z"/>
<path d="M7490 4436 c0 -8 -4 -18 -10 -21 -5 -3 -92 -17 -192 -30 l-183 -23
-28 20 -29 20 7 -69 c8 -73 19 -98 30 -64 7 22 42 34 126 45 l47 5 6 -51 c8
-62 27 -99 62 -127 55 -43 143 -35 185 17 20 25 21 35 15 137 -3 61 -9 120
-12 133 -7 24 -24 30 -24 8z m10 -158 c0 -39 -4 -50 -31 -72 -22 -18 -42 -26
-70 -26 -53 0 -78 14 -95 55 -12 29 -19 83 -11 86 1 0 45 6 97 13 64 7 97 8
102 1 4 -5 8 -31 8 -57z"/>
<path d="M165 4083 c-3 -87 -8 -170 -11 -185 l-6 -28 61 0 c72 0 80 15 23 45
-33 18 -37 25 -40 64 l-3 43 128 -6 c253 -13 273 -16 285 -42 18 -39 28 -17
28 64 0 77 -1 77 -19 53 l-18 -24 -194 8 c-107 4 -197 9 -200 11 -3 2 -3 20 0
41 5 33 12 41 49 58 23 11 42 25 42 31 0 12 -44 24 -90 24 l-28 0 -7 -157z"/>
<path d="M7529 4039 c-16 -24 -18 -24 -206 -28 -188 -3 -191 -3 -212 20 l-21
23 0 -77 c0 -45 4 -77 10 -77 6 0 10 7 10 15 0 22 42 35 116 35 l64 0 0 -52
c1 -68 29 -132 69 -152 64 -34 155 -13 180 40 17 38 24 146 14 218 -8 59 -8
60 -24 35z m-1 -139 c-7 -71 -36 -100 -99 -100 -26 0 -55 3 -64 6 -24 9 -45
58 -45 104 l0 40 106 0 107 0 -5 -50z"/>
<path d="M154 3788 c8 -71 13 -81 27 -55 15 25 36 21 129 -23 l84 -41 -83 -49
c-90 -54 -107 -59 -127 -32 -12 15 -13 7 -14 -54 0 -78 6 -94 27 -65 7 11 65
51 128 90 l115 71 79 0 c70 0 80 -2 94 -22 15 -22 16 -20 16 42 0 36 -4 74 -8
85 -8 20 -8 20 -15 -2 -8 -27 -21 -32 -105 -39 -66 -6 -67 -6 -180 50 -62 32
-124 68 -138 82 -13 13 -27 24 -30 24 -3 0 -2 -28 1 -62z"/>
<path d="M7087 3663 c-8 -48 -9 -113 -1 -113 3 0 13 9 22 20 17 20 21 20 202
8 172 -11 186 -13 206 -35 28 -30 34 -16 34 70 l0 61 -22 -23 c-20 -22 -26
-23 -102 -17 -45 3 -128 8 -186 12 -96 5 -107 8 -126 31 l-21 25 -6 -39z"/>
<path d="M527 3553 c-30 -3 -37 -8 -33 -19 3 -9 6 -18 6 -20 0 -2 15 -4 34 -4
51 0 75 -26 85 -90 5 -30 6 -58 3 -61 -4 -3 -92 -18 -195 -33 -173 -26 -189
-27 -206 -12 -10 9 -20 16 -22 16 -3 0 -1 -31 4 -70 10 -70 20 -87 32 -51 8
25 6 25 218 57 171 26 178 26 197 9 19 -18 20 -17 20 6 0 13 -9 78 -20 144
-11 66 -20 123 -20 128 0 7 -32 7 -103 0z"/>
<path d="M7076 3493 c-11 -39 -17 -103 -10 -103 4 0 12 8 19 17 12 16 23 16
191 -8 l179 -25 -210 -83 c-116 -46 -213 -89 -217 -95 -19 -28 -1 -34 195 -66
210 -33 237 -41 237 -65 0 -8 4 -15 9 -15 4 0 13 27 18 60 5 33 7 60 5 60 -3
0 -13 -7 -23 -16 -16 -14 -27 -14 -126 1 -59 9 -128 20 -153 24 l-45 7 185 73
c102 41 187 76 189 77 6 5 21 97 16 102 -3 3 -13 -2 -24 -12 -17 -16 -29 -15
-204 13 -102 16 -191 32 -196 36 -6 3 -11 13 -11 21 0 20 -18 18 -24 -3z"/>
<path d="M464 3165 c-172 -37 -244 -143 -185 -270 45 -99 151 -129 295 -85
100 31 166 100 166 172 0 68 -44 145 -99 172 -42 21 -111 26 -177 11z m212
-88 c37 -43 33 -101 -9 -141 -66 -62 -238 -102 -309 -73 -44 19 -72 66 -63
107 17 76 155 142 289 137 61 -3 71 -6 92 -30z"/>
<path d="M6966 2948 c-21 -79 -39 -147 -40 -152 -1 -7 28 -20 92 -40 32 -11
30 27 -4 44 -42 23 -46 42 -27 116 20 75 12 73 144 34 l67 -20 -13 -42 c-12
-41 -21 -51 -57 -62 -36 -11 -17 -32 43 -48 51 -14 61 -14 66 -2 3 8 -5 22
-17 32 -20 16 -21 21 -10 65 7 26 15 47 18 47 9 0 156 -42 164 -46 8 -5 -27
-123 -41 -137 -5 -5 -24 -12 -43 -16 -47 -10 -42 -33 11 -48 25 -7 46 -11 48
-9 6 6 83 280 83 295 0 11 -5 10 -20 -4 -19 -17 -25 -17 -192 30 -180 49 -218
65 -218 90 0 8 -3 15 -8 15 -4 0 -25 -64 -46 -142z"/>
<path d="M6906 2731 c-28 -31 -66 -126 -66 -167 0 -52 26 -86 81 -108 55 -22
98 -9 173 53 66 55 91 64 135 45 67 -28 48 -133 -27 -150 -66 -14 -69 -25 -12
-48 22 -9 43 -16 46 -16 2 0 18 28 34 63 49 102 38 177 -30 212 -57 30 -90 20
-178 -52 -81 -65 -132 -69 -175 -12 -17 23 -18 32 -8 62 15 45 42 69 83 72 48
4 47 28 -1 47 -36 15 -41 15 -55 -1z"/>
<path d="M461 2716 c-47 -17 -81 -59 -81 -102 0 -34 26 -121 63 -204 17 -39
20 -42 27 -25 12 31 23 37 196 103 170 66 183 69 202 50 23 -23 23 1 1 61 -23
64 -39 86 -39 53 0 -11 -6 -25 -14 -31 -20 -17 -137 -61 -146 -56 -4 3 -11 17
-15 32 -11 47 -55 104 -90 119 -41 17 -58 17 -104 0z m136 -79 c20 -18 50 -85
41 -91 -9 -6 -171 -66 -179 -66 -13 0 -39 63 -39 94 0 34 28 64 75 81 45 16
70 12 102 -18z"/>
<path d="M6939 2259 c-79 -53 -115 -105 -129 -186 -9 -54 -22 -81 -73 -157
l-62 -91 -3 45 c-2 24 1 63 7 86 14 55 14 134 1 134 -22 0 -157 -146 -180
-194 -18 -39 -27 -82 -37 -194 -13 -134 -16 -148 -42 -181 -16 -20 -39 -45
-51 -56 -33 -29 -43 -5 -33 80 9 86 9 212 -1 223 -4 4 -45 -31 -90 -78 -102
-106 -150 -196 -166 -315 -6 -44 -16 -98 -22 -120 -6 -22 -12 -48 -13 -59 -1
-10 -30 -40 -66 -67 -80 -60 -83 -52 -34 94 31 93 46 197 29 197 -13 0 -129
-85 -184 -137 -85 -79 -116 -127 -151 -240 -52 -166 -51 -165 -135 -206 -90
-45 -94 -36 -34 66 47 81 95 207 78 207 -26 0 -193 -98 -243 -143 -61 -54 -81
-87 -115 -191 l-22 -68 -82 -38 c-44 -21 -114 -52 -153 -70 -121 -55 -87 -66
76 -26 54 14 115 32 136 40 36 15 40 15 138 -19 112 -39 162 -43 252 -20 74
19 291 124 279 134 -14 13 -141 39 -219 46 -88 7 -135 15 -135 24 0 3 34 23
76 45 l75 39 105 -22 c124 -25 182 -26 255 -5 77 22 192 87 273 151 62 50 67
57 50 67 -12 7 -80 11 -187 10 -130 -1 -165 2 -155 11 7 6 44 35 81 64 l69 53
134 9 c147 10 215 28 286 77 46 32 170 157 188 191 10 20 8 20 -37 15 -27 -4
-85 -15 -131 -25 -88 -20 -152 -25 -152 -11 0 5 28 36 63 69 60 58 64 60 152
77 155 30 229 78 282 181 29 56 65 155 56 155 -3 0 -22 -14 -43 -30 -45 -36
-89 -55 -148 -65 l-43 -7 43 66 c34 53 50 68 79 76 95 26 143 92 160 218 15
115 14 117 -52 71z"/>
<path d="M740 2245 c0 -56 23 -172 41 -207 22 -42 78 -84 125 -94 28 -5 73
-56 117 -130 9 -16 -83 0 -125 22 -18 9 -50 30 -70 46 -21 16 -38 28 -38 25 0
-12 40 -119 59 -155 54 -105 136 -158 295 -188 l94 -17 56 -63 c55 -61 56 -64
33 -69 -13 -4 -62 2 -108 13 -46 11 -111 23 -143 27 l-59 8 34 -48 c53 -74
157 -165 224 -196 66 -31 165 -48 283 -49 l72 0 84 -64 c47 -36 79 -67 72 -69
-6 -3 -55 0 -108 5 -95 10 -231 -2 -243 -22 -8 -12 142 -123 220 -163 123 -62
196 -74 317 -51 161 30 157 30 242 -13 l79 -40 -44 -11 c-24 -6 -80 -14 -124
-17 -81 -6 -205 -34 -205 -46 0 -14 214 -111 287 -129 103 -27 120 -26 240 16
l105 36 76 -25 c93 -31 240 -63 248 -54 13 13 -11 27 -141 82 -74 32 -143 67
-153 79 -11 12 -30 53 -42 91 -13 39 -35 87 -50 107 -46 63 -165 148 -272 192
l-37 16 16 -53 c8 -28 38 -95 67 -149 28 -53 48 -99 45 -103 -11 -10 -147 63
-160 86 -6 12 -22 58 -35 104 -13 46 -33 105 -44 130 -26 60 -140 179 -236
245 l-74 51 0 -51 c0 -32 13 -91 35 -156 34 -102 41 -134 29 -134 -15 0 -133
94 -128 102 3 5 1 21 -5 36 -6 15 -20 78 -30 140 -25 149 -53 202 -166 320
l-90 95 -8 -44 c-5 -27 -4 -80 4 -136 11 -88 8 -143 -9 -143 -4 0 -29 21 -55
48 l-47 47 -10 130 c-6 72 -16 146 -22 165 -17 58 -67 127 -137 191 l-66 61
-3 -42 c-2 -23 2 -64 7 -91 13 -58 14 -129 4 -129 -16 1 -117 165 -126 204
-24 108 -29 120 -81 170 -28 28 -66 59 -84 69 l-32 18 0 -26z"/>
<path d="M4383 702 c-18 -11 -175 -364 -166 -373 4 -4 50 -1 102 7 108 17 111
16 111 -57 0 -29 -6 -51 -15 -59 -28 -23 -16 -26 54 -16 80 13 94 21 58 35
-21 8 -27 19 -34 63 -10 60 -5 68 45 68 32 0 33 1 30 37 -3 40 -26 57 -35 24
-6 -22 -40 -38 -52 -24 -4 4 -15 60 -25 123 -27 181 -27 180 -45 180 -9 0 -21
-4 -28 -8z m17 -210 c6 -52 8 -98 4 -102 -5 -5 -37 -12 -72 -16 l-62 -7 36 84
c20 46 43 101 51 123 20 49 27 37 43 -82z"/>
<path d="M3230 674 c-104 -39 -110 -42 -104 -58 5 -12 10 -12 39 0 52 21 75
18 75 -10 0 -52 -60 -340 -72 -347 -7 -5 -32 -9 -55 -9 -43 0 -58 -14 -25 -24
9 -2 58 -12 107 -21 50 -8 102 -18 118 -21 44 -9 33 21 -12 35 -23 6 -42 19
-46 30 -5 16 54 375 71 434 7 24 -16 22 -96 -9z"/>
<path d="M3541 648 c-68 -35 -86 -66 -86 -149 0 -64 2 -71 32 -100 39 -40 108
-50 167 -25 22 9 41 14 44 11 9 -8 -16 -80 -40 -115 -28 -41 -72 -68 -116 -72
-23 -2 -32 -7 -30 -18 8 -37 106 -16 167 36 61 53 93 127 99 233 4 77 2 95
-16 133 -39 80 -138 110 -221 66z m113 -18 c14 -5 32 -23 41 -39 15 -31 21
-137 7 -157 -24 -37 -115 -46 -152 -16 -51 41 -31 179 30 209 30 15 41 16 74
3z"/>
<path d="M3905 629 c-51 -45 -69 -114 -63 -244 7 -164 55 -235 159 -235 58 0
104 30 133 85 18 34 21 58 21 165 0 107 -3 132 -22 172 -28 61 -71 88 -140 88
-44 0 -58 -5 -88 -31z m134 -20 c32 -35 46 -105 46 -241 0 -113 -2 -130 -21
-155 -48 -65 -116 -30 -140 74 -16 69 -18 240 -3 280 24 64 79 84 118 42z"/>
</g>
</svg>
